<svg width="8" height="14" viewBox="0 0 8 14" fill="none" xmlns="http://www.w3.org/2000/svg">
<path d="M7.07179 1.37318C7.0716 1.5954 6.98317 1.80844 6.82594 1.96547L2.53916 6.25225C2.4094 6.38197 2.30648 6.53598 2.23625 6.70548C2.16603 6.87498 2.12988 7.05666 2.12988 7.24013C2.12988 7.42361 2.16603 7.60528 2.23625 7.77479C2.30648 7.94429 2.4094 8.0983 2.53916 8.22802L6.82035 12.5092C6.97303 12.6673 7.05751 12.879 7.0556 13.0988C7.05369 13.3185 6.96554 13.5287 6.81014 13.6841C6.65475 13.8395 6.44453 13.9277 6.22477 13.9296C6.00502 13.9315 5.7933 13.847 5.63523 13.6943L1.35403 9.41649C0.77838 8.83971 0.455078 8.0581 0.455078 7.24321C0.455078 6.42831 0.77838 5.64671 1.35403 5.06992L5.64082 0.780343C5.75803 0.663051 5.90741 0.583165 6.07004 0.550794C6.23267 0.518423 6.40125 0.535021 6.55445 0.598489C6.70765 0.661957 6.83857 0.769441 6.93066 0.907342C7.02275 1.04524 7.07187 1.20736 7.07179 1.37318Z" fill="#757575"/>
</svg>
