<svg width="15" height="14" viewBox="0 0 15 14" fill="none" xmlns="http://www.w3.org/2000/svg">
<path d="M10.5012 7C10.5012 7.322 10.2398 7.58333 9.91783 7.58333C9.59583 7.58333 9.3345 7.322 9.3345 7C9.3345 6.678 9.59583 6.41667 9.91783 6.41667C10.2398 6.41667 10.5012 6.678 10.5012 7ZM4.0845 2.91667C4.4065 2.91667 4.66783 2.65592 4.66783 2.33333C4.66783 1.68992 5.19108 1.16667 5.8345 1.16667C6.47792 1.16667 7.00117 1.68992 7.00117 2.33333C7.00117 2.65592 7.2625 2.91667 7.5845 2.91667C7.9065 2.91667 8.16783 2.65592 8.16783 2.33333C8.16783 1.0465 7.12133 0 5.8345 0C4.54767 0 3.50117 1.0465 3.50117 2.33333C3.50117 2.65592 3.7625 2.91667 4.0845 2.91667ZM14.0012 7.58333V8.75C14.0012 9.39517 13.5648 9.78775 13.0865 9.88983C12.7009 10.8547 11.9945 11.6696 11.0845 12.1963V12.25C11.0845 13.2148 10.2993 14 9.3345 14C8.57383 14 7.92517 13.5123 7.68425 12.8333H6.3175C6.07658 13.5123 5.42792 14 4.66725 14C3.70242 14 2.91725 13.2148 2.91725 12.25V12.2039C1.38017 11.3178 0.47775 9.65067 0.593833 7.8575C0.630583 7.287 0.774667 6.74508 1.00508 6.24983C0.411833 5.96925 0 5.3655 0 4.66667C0 3.70183 0.785167 2.91667 1.75 2.91667C2.072 2.91667 2.33333 3.17742 2.33333 3.5C2.33333 3.82258 2.072 4.08333 1.75 4.08333C1.428 4.08333 1.16667 4.34467 1.16667 4.66667C1.16667 4.95308 1.37433 5.19167 1.64675 5.24067C2.534 4.17725 3.89433 3.5 5.40517 3.5H8.53358C8.96117 2.63783 9.75975 2.03467 10.8243 1.7815C11.1691 1.70042 11.5261 1.77975 11.8049 1.99967C12.0878 2.22367 12.2506 2.5585 12.2506 2.919V5.08608C12.6053 5.48917 12.8888 5.95 13.0859 6.4435C13.5648 6.54558 14.0006 6.93817 14.0006 7.58333H14.0012ZM12.8345 7.58333H12.663C12.4052 7.58333 12.1777 7.41358 12.1042 7.16625C11.9443 6.62958 11.6492 6.13025 11.2508 5.72133C11.144 5.61225 11.0845 5.46583 11.0845 5.31417V2.919C10.5158 3.05433 9.76325 3.40317 9.47217 4.28108C9.38992 4.52783 9.14958 4.69758 8.89467 4.68008C8.855 4.67833 5.40633 4.66725 5.40633 4.66725C3.47958 4.66725 1.87717 6.10167 1.75875 7.93333C1.66542 9.37358 2.44767 10.7053 3.752 11.3254C3.95558 11.4222 4.0845 11.6276 4.0845 11.8522V12.2506C4.0845 12.5726 4.34642 12.8339 4.66783 12.8339C4.98925 12.8339 5.25117 12.5726 5.25117 12.2506C5.25117 11.9286 5.5125 11.6672 5.8345 11.6672H8.16783C8.48983 11.6672 8.75117 11.928 8.75117 12.2506C8.75117 12.5732 9.01308 12.8339 9.3345 12.8339C9.65592 12.8339 9.91783 12.5726 9.91783 12.2506V11.8457C9.91783 11.6212 10.0468 11.4164 10.2498 11.3196C11.1493 10.8903 11.8248 10.1057 12.1042 9.16825C12.1777 8.92092 12.4052 8.75117 12.663 8.75117H12.8345V7.5845V7.58333Z" fill="#757575"/>
</svg>
