<svg width="6" height="13" viewBox="0 0 6 13" fill="none" xmlns="http://www.w3.org/2000/svg">
<path d="M0.0400152 11.7475C0.0401902 11.5487 0.119322 11.3581 0.260015 11.2175L4.09602 7.38154C4.21212 7.26546 4.30423 7.12765 4.36707 6.97597C4.42991 6.82429 4.46225 6.66172 4.46225 6.49754C4.46225 6.33336 4.42991 6.17079 4.36707 6.01911C4.30423 5.86743 4.21212 5.72962 4.09602 5.61354L0.265015 1.78254C0.128396 1.64109 0.0528002 1.45164 0.0545092 1.25499C0.0562177 1.05834 0.135095 0.870232 0.274151 0.731175C0.413207 0.592119 0.601316 0.513243 0.797964 0.511534C0.994612 0.509825 1.18406 0.585421 1.32551 0.722039L5.15652 4.55004C5.67163 5.06617 5.96094 5.76559 5.96094 6.49479C5.96094 7.22399 5.67163 7.92341 5.15652 8.43954L1.32052 12.278C1.21562 12.383 1.08196 12.4545 0.936426 12.4834C0.790895 12.5124 0.640043 12.4976 0.502956 12.4408C0.36587 12.384 0.248711 12.2878 0.166305 12.1644C0.0838981 12.041 0.0399475 11.8959 0.0400152 11.7475Z" fill="#757575"/>
</svg>
