<svg width="42" height="42" viewBox="0 0 42 42" fill="none" xmlns="http://www.w3.org/2000/svg">
<rect width="42" height="42" fill="#F5F5F5"/>
<g clip-path="url(#clip0_0_1)">
<rect width="1440" height="4177" transform="translate(-1254 -29)" fill="white"/>
<g filter="url(#filter0_d_0_1)">
<rect x="-1254" y="-29" width="1440" height="100" fill="#FEFEFE"/>
</g>
<circle cx="21" cy="21" r="20.5" fill="#757575" stroke="#757575"/>
<path d="M20.5237 20.9999C23.1596 20.9999 25.2964 18.8631 25.2964 16.2272C25.2964 13.5913 23.1596 11.4545 20.5237 11.4545C17.8878 11.4545 15.751 13.5913 15.751 16.2272C15.751 18.8631 17.8878 20.9999 20.5237 20.9999Z" fill="white"/>
<path d="M20.5243 22.5908C16.5723 22.5952 13.3696 25.7978 13.3652 29.7499C13.3652 30.1892 13.7214 30.5453 14.1607 30.5453H26.8879C27.3273 30.5453 27.6834 30.1892 27.6834 29.7499C27.679 25.7978 24.4764 22.5951 20.5243 22.5908Z" fill="white"/>
</g>
<defs>
<filter id="filter0_d_0_1" x="-1269" y="-42" width="1470" height="130" filterUnits="userSpaceOnUse" color-interpolation-filters="sRGB">
<feFlood flood-opacity="0" result="BackgroundImageFix"/>
<feColorMatrix in="SourceAlpha" type="matrix" values="0 0 0 0 0 0 0 0 0 0 0 0 0 0 0 0 0 0 127 0" result="hardAlpha"/>
<feOffset dy="2"/>
<feGaussianBlur stdDeviation="7.5"/>
<feComposite in2="hardAlpha" operator="out"/>
<feColorMatrix type="matrix" values="0 0 0 0 0.244965 0 0 0 0 0.327677 0 0 0 0 0.345833 0 0 0 0.075 0"/>
<feBlend mode="normal" in2="BackgroundImageFix" result="effect1_dropShadow_0_1"/>
<feBlend mode="normal" in="SourceGraphic" in2="effect1_dropShadow_0_1" result="shape"/>
</filter>
<clipPath id="clip0_0_1">
<rect width="1440" height="4177" fill="white" transform="translate(-1254 -29)"/>
</clipPath>
</defs>
</svg>
